<svg xmlns="http://www.w3.org/2000/svg" xmlns:xlink="http://www.w3.org/1999/xlink">
  <symbol id="logo" viewBox="0 0 42 27">
    <path
      d="m1.92,21.81zm23.12,-18.56l8.55,8.52l-9.75,0.04l0,-0.04c-5.51,0.02 -11.03,0.04 -16.54,0.06l8.49,-8.6l-2.46,-2.45l-10.21,10.34l-2.45,2.47l1.74,1.73l0.72,0.72l10.29,10.27l2.44,-2.47l-8.54,-8.54l0.75,0.23l9,-0.23l16.54,-0.04l-8.49,8.59l2.46,2.46l10.93,-11.07l1.72,-1.74l-1.74,-1.74l-11,-10.98l-2.45,2.47z"
    />
  </symbol>
  
  <symbol id="burger" viewBox="0 0 24 24">
    <path
      fill-rule="evenodd"
      clip-rule="evenodd"
      d="M4 5C3.44772 5 3 5.44772 3 6C3 6.55228 3.44772 7 4 7H20C20.5523 7 21 6.55228 21 6C21 5.44772 20.5523 5 20 5H4ZM7 12C7 11.4477 7.44772 11 8 11H20C20.5523 11 21 11.4477 21 12C21 12.5523 20.5523 13 20 13H8C7.44772 13 7 12.5523 7 12ZM13 18C13 17.4477 13.4477 17 14 17H20C20.5523 17 21 17.4477 21 18C21 18.5523 20.5523 19 20 19H14C13.4477 19 13 18.5523 13 18Z"
    />
  </symbol>

  <symbol id="email" viewBox="0 0 512 512">
    <path
      d="M452,68H60C26.916,68,0,94.916,0,128v256c0,33.084,26.916,60,60,60h392c33.084,0,60-26.916,60-60V128 C512,94.916,485.084,68,452,68z M472,384c0,11.028-8.972,20-20,20H60c-11.028,0-20-8.972-20-20V128c0-11.028,8.972-20,20-20h392 c11.028,0,20,8.972,20,20V384z"
    />
    <polygon 
      points="468.604,92.937 256,251.074 43.396,92.937 19.522,125.032 256,300.926 492.478,125.032 " 
    />    
  </symbol>

  <symbol id="instagram" viewBox="0 0 169.063 169.063">
    <path fill='currentColor' d="M122.406,0H46.654C20.929,0,0,20.93,0,46.655v75.752c0,25.726,20.929,46.655,46.654,46.655h75.752 c25.727,0,46.656-20.93,46.656-46.655V46.655C169.063,20.93,148.133,0,122.406,0z M154.063,122.407 c0,17.455-14.201,31.655-31.656,31.655H46.654C29.2,154.063,15,139.862,15,122.407V46.655C15,29.201,29.2,15,46.654,15h75.752 c17.455,0,31.656,14.201,31.656,31.655V122.407z" />
    <path fill='currentColor' d="M84.531,40.97c-24.021,0-43.563,19.542-43.563,43.563c0,24.02,19.542,43.561,43.563,43.561s43.563-19.541,43.563-43.561 C128.094,60.512,108.552,40.97,84.531,40.97z M84.531,113.093c-15.749,0-28.563-12.812-28.563-28.561 c0-15.75,12.813-28.563,28.563-28.563s28.563,12.813,28.563,28.563C113.094,100.281,100.28,113.093,84.531,113.093z" />
    <path fill='currentColor' d="M129.921,28.251c-2.89,0-5.729,1.17-7.77,3.22c-2.051,2.04-3.23,4.88-3.23,7.78c0,2.891,1.18,5.73,3.23,7.78 c2.04,2.04,4.88,3.22,7.77,3.22c2.9,0,5.73-1.18,7.78-3.22c2.05-2.05,3.22-4.89,3.22-7.78c0-2.9-1.17-5.74-3.22-7.78 C135.661,29.421,132.821,28.251,129.921,28.251z" />
  </symbol>

  <symbol id="phone" viewBox="0 0 512.021 512.021">
    <path 
      d="m367.988 512.021c-16.528 0-32.916-2.922-48.941-8.744-70.598-25.646-136.128-67.416-189.508-120.795s-95.15-118.91-120.795-189.508c-8.241-22.688-10.673-46.108-7.226-69.612 3.229-22.016 11.757-43.389 24.663-61.809 12.963-18.501 30.245-33.889 49.977-44.5 21.042-11.315 44.009-17.053 68.265-17.053 7.544 0 14.064 5.271 15.645 12.647l25.114 117.199c1.137 5.307-.494 10.829-4.331 14.667l-42.913 42.912c40.482 80.486 106.17 146.174 186.656 186.656l42.912-42.913c3.838-3.837 9.361-5.466 14.667-4.331l117.199 25.114c7.377 1.581 12.647 8.101 12.647 15.645 0 24.256-5.738 47.224-17.054 68.266-10.611 19.732-25.999 37.014-44.5 49.977-18.419 12.906-39.792 21.434-61.809 24.663-6.899 1.013-13.797 1.518-20.668 1.519zm-236.349-479.321c-31.995 3.532-60.393 20.302-79.251 47.217-21.206 30.265-26.151 67.49-13.567 102.132 49.304 135.726 155.425 241.847 291.151 291.151 34.641 12.584 71.866 7.64 102.132-13.567 26.915-18.858 43.685-47.256 47.217-79.251l-95.341-20.43-44.816 44.816c-4.769 4.769-12.015 6.036-18.117 3.168-95.19-44.72-172.242-121.772-216.962-216.962-2.867-6.103-1.601-13.349 3.168-18.117l44.816-44.816z" 
    />
  </symbol>
  
  <symbol id="pinterest" viewBox="0 0 438.557 438.557">
    <path
      d="M414.418,24.128C398.341,8.047,378.972,0.005,356.323,0.005V0H82.239C59.591,0,40.222,8.044,24.138,24.125 C8.057,40.209,0.015,59.578,0.015,82.226v274.089c0,22.647,8.042,42.018,24.123,58.095c16.084,16.084,35.454,24.126,58.102,24.126 h52.25c-3.239-29.304-2.573-53.481,1.997-72.512l27.978-118.198c-4.568-9.329-6.854-20.841-6.854-34.543 c0-15.796,4.045-29.075,12.137-39.827c8.086-10.757,17.937-16.134,29.547-16.134c9.326,0,16.512,3.092,21.554,9.276 c5.041,6.189,7.566,13.945,7.566,23.272c0,5.898-1.047,12.99-3.138,21.267c-2.098,8.285-4.9,17.99-8.422,29.126 c-3.521,11.135-6.042,19.934-7.566,26.404c-2.663,11.424-0.476,21.27,6.567,29.555c7.042,8.274,16.272,12.422,27.696,12.422 c20.177,0,36.686-11.231,49.539-33.694c12.847-22.456,19.267-49.676,19.267-81.649c0-24.551-7.946-44.54-23.846-59.955 c-15.886-15.418-38.013-23.128-66.376-23.128c-31.78,0-57.526,10.138-77.228,30.407c-19.701,20.271-29.552,44.684-29.552,73.233 c0,16.748,4.761,31.025,14.277,42.828c3.234,3.614,4.283,7.615,3.14,11.995c-0.953,3.237-2.38,9.041-4.283,17.412 c-0.763,2.669-2.141,4.473-4.141,5.428c-2.002,0.951-4.237,0.951-6.711,0c-14.655-6.088-25.747-16.563-33.263-31.409 c-7.517-14.842-11.276-31.977-11.276-51.387c0-12.564,2.047-25.179,6.14-37.831c4.093-12.66,10.422-24.841,18.986-36.545 c8.564-11.709,18.792-22.129,30.69-31.267c11.894-9.132,26.458-16.413,43.682-21.838c17.222-5.424,35.736-8.137,55.524-8.137 c20.181,0,38.927,3.48,56.25,10.426c17.319,6.945,31.833,16.175,43.544,27.69c11.703,11.516,20.889,24.744,27.545,39.687 c6.666,14.938,9.996,30.406,9.996,46.392c0,43.019-10.896,78.564-32.688,106.637c-21.793,28.075-49.916,42.116-84.363,42.116 c-11.43,0-22.128-2.666-32.124-7.994c-9.991-5.328-16.986-11.704-20.984-19.13c-8.374,33.312-13.417,53.197-15.131,59.669 c-4.377,16.751-14.655,36.733-30.833,59.956H356.32c22.647,0,42.017-8.042,58.095-24.126 c16.084-16.084,24.126-35.454,24.126-58.102v-274.1C438.541,59.582,430.499,40.212,414.418,24.128z"
    />
  </symbol>

  <symbol id="vk" viewBox="0 0 532.337 532.337">
    <path
      d="M471.998,241.286c7.57-9.786,13.58-17.638,18.018-23.562c31.965-42.498,45.82-69.646,41.574-81.482l-1.666-2.772 c-1.107-1.665-3.977-3.194-8.592-4.578c-4.621-1.383-10.533-1.604-17.736-0.691l-79.822,0.563 c-1.848-0.184-3.697-0.141-5.545,0.128c-1.848,0.281-3.047,0.563-3.605,0.832c-0.557,0.282-1.016,0.508-1.383,0.692l-1.107,0.832 c-0.924,0.551-1.939,1.524-3.047,2.914c-1.109,1.389-2.039,2.999-2.773,4.853c-8.684,22.356-18.568,43.146-29.656,62.363 c-6.838,11.457-13.123,21.396-18.844,29.792c-5.729,8.415-10.533,14.603-14.414,18.568c-3.879,3.972-7.393,7.166-10.531,9.56 c-3.146,2.411-5.545,3.421-7.203,3.054c-1.666-0.367-3.238-0.734-4.713-1.114c-2.588-1.658-4.67-3.917-6.236-6.787 c-1.572-2.857-2.631-6.463-3.189-10.808c-0.551-4.339-0.881-8.084-0.967-11.23c-0.098-3.139-0.049-7.57,0.141-13.305 c0.184-5.729,0.275-9.602,0.275-11.64c0-7.014,0.141-14.639,0.418-22.864c0.275-8.219,0.508-14.737,0.691-19.542 c0.184-4.798,0.275-9.884,0.275-15.245c0-5.349-0.324-9.56-0.975-12.613c-0.648-3.042-1.621-5.998-2.906-8.868 c-1.297-2.858-3.189-5.08-5.686-6.646c-2.496-1.573-5.588-2.815-9.283-3.746c-9.799-2.222-22.271-3.409-37.418-3.604 c-34.37-0.355-56.451,1.86-66.243,6.658c-3.88,2.038-7.393,4.804-10.532,8.317c-3.329,4.07-3.788,6.291-1.383,6.646 c11.089,1.665,18.936,5.643,23.556,11.922l1.665,3.323c1.291,2.411,2.583,6.659,3.88,12.754c1.292,6.096,2.124,12.84,2.497,20.233 c0.924,13.488,0.924,25.031,0,34.646c-0.924,9.614-1.799,17.093-2.631,22.442c-0.833,5.361-2.081,9.7-3.74,13.023 c-1.665,3.335-2.772,5.367-3.329,6.107c-0.557,0.734-1.016,1.199-1.383,1.384c-2.405,0.918-4.896,1.383-7.484,1.383 c-2.589,0-5.729-1.298-9.425-3.887c-3.697-2.576-7.534-6.138-11.5-10.667c-3.978-4.522-8.452-10.856-13.446-18.99 c-4.988-8.121-10.166-17.736-15.521-28.819l-4.431-8.042c-2.772-5.165-6.561-12.699-11.365-22.583s-9.058-19.443-12.748-28.69 c-1.481-3.874-3.697-6.83-6.652-8.868l-1.383-0.832c-0.924-0.735-2.405-1.524-4.437-2.351c-2.038-0.832-4.155-1.432-6.377-1.805 l-75.943,0.551c-7.76,0-13.023,1.763-15.795,5.275l-1.108,1.659C0.275,136.059,0,137.54,0,139.566 c0,2.038,0.557,4.529,1.665,7.479c11.089,26.059,23.146,51.188,36.169,75.386c13.03,24.211,24.346,43.709,33.954,58.489 c9.608,14.792,19.4,28.733,29.382,41.854c9.982,13.121,16.585,21.523,19.816,25.214c3.231,3.703,5.771,6.476,7.62,8.317 l6.928,6.658c4.431,4.432,10.949,9.743,19.542,15.937c8.592,6.193,18.103,12.289,28.55,18.287 c10.435,6.01,22.589,10.899,36.444,14.694c13.856,3.794,27.344,5.317,40.465,4.571h31.874c6.469-0.551,11.363-2.576,14.688-6.096 l1.107-1.383c0.734-1.102,1.432-2.815,2.08-5.123c0.643-2.307,0.975-4.853,0.975-7.619c-0.191-7.943,0.416-15.116,1.799-21.481 c1.383-6.377,2.955-11.175,4.713-14.418c1.756-3.226,3.738-5.955,5.959-8.177c2.217-2.222,3.783-3.55,4.713-4.015 c0.924-0.453,1.666-0.777,2.217-0.973c4.43-1.476,9.65-0.043,15.66,4.296c6.004,4.352,11.641,9.7,16.91,16.077 c5.262,6.377,11.59,13.531,18.984,21.481c7.387,7.943,13.855,13.855,19.4,17.735l5.545,3.336 c3.695,2.209,8.494,4.241,14.412,6.096c5.912,1.842,11.09,2.307,15.52,1.383l70.955-1.114c7.02,0,12.473-1.15,16.354-3.464 c3.879-2.295,6.188-4.853,6.928-7.619c0.734-2.772,0.783-5.899,0.141-9.419c-0.648-3.507-1.297-5.955-1.939-7.338 c-0.648-1.383-1.25-2.546-1.807-3.464c-9.24-16.628-26.885-37.051-52.938-61.255l-0.557-0.551l-0.275-0.281l-0.275-0.27H473.4 c-11.83-11.273-19.309-18.85-22.449-22.736c-5.727-7.38-7.025-14.865-3.879-22.441 C449.275,271.874,457.586,259.769,471.998,241.286z"
    />
  </symbol>

  <symbol id="close" viewBox="0 0 32 32">
    <path 
      d="M32 28.8L19.2 16L32 3.2L28.8 0L16 12.8L3.2 0L0 3.2L12.8 16L0 28.8L3.2 32L16 19.2L28.8 32L32 28.8Z"/>
  </symbol>
</svg>
