<svg xmlns="http://www.w3.org/2000/svg" width="196" height="196" viewBox="0 0 196 196" fill="none">
  <path d="M178.721 76.0249L61.2069 5.76471C55.0039 2.04274 47.2455 0.00681166 39.2392 0C19.7333 0 3.92004 11.9041 3.92004 26.5926V167.102C3.92004 173.108 6.617 178.936 11.5797 183.64C23.716 195.141 45.9346 197.061 61.2069 187.924L178.729 117.669C180.842 116.406 182.751 114.968 184.42 113.386C196.549 101.885 194.001 85.1562 178.721 76.0249ZM162.641 100.364C162.284 100.7 161.877 101.006 161.426 101.274L43.9119 171.529C43.1442 171.99 42.2582 172.333 41.3067 172.537C40.3552 172.741 39.3575 172.803 38.3731 172.718C37.3886 172.633 36.4374 172.403 35.5761 172.042C34.7147 171.682 33.9609 171.197 33.3592 170.618C32.3035 169.61 31.7327 168.374 31.7364 167.102V26.5926C31.7154 25.1125 32.4935 23.6867 33.8999 22.6277C35.3063 21.5687 37.2264 20.9629 39.2392 20.9432C40.9405 20.9432 42.5869 21.3698 43.9119 22.1653L161.433 92.4198C162.997 93.3698 163.997 94.7297 164.223 96.2121C164.448 97.6944 163.881 99.1831 162.641 100.364Z" fill="#EA4809"/>
</svg>